<svg xmlns="http://www.w3.org/2000/svg" width="64" height="64" viewBox="0 0 16 16" shape-rendering="crispEdges"><rect x="0" y="0" width="16" height="16" fill="#1f4e99"/><rect x="0" y="0" width="16" height="1" fill="#2f6fd6"/><rect x="0" y="0" width="1" height="16" fill="#2f6fd6"/><rect x="0" y="15" width="16" height="1" fill="#153a75"/><rect x="15" y="0" width="1" height="16" fill="#153a75"/><rect x="3" y="2" width="1" height="1" fill="#fff"/><rect x="4" y="2" width="1" height="1" fill="#fff"/><rect x="7" y="2" width="1" height="1" fill="#fff"/><rect x="8" y="2" width="1" height="1" fill="#fff"/><rect x="11" y="2" width="1" height="1" fill="#fff"/><rect x="12" y="2" width="1" height="1" fill="#fff"/><rect x="3" y="3" width="10" height="1" fill="#fff"/><rect x="3" y="4" width="10" height="10" fill="#fff"/><rect x="3" y="6" width="10" height="1" fill="#dbe5f5"/><rect x="3" y="9" width="10" height="1" fill="#dbe5f5"/><rect x="5" y="5" width="1" height="2" fill="#1f4e99"/><rect x="10" y="5" width="1" height="2" fill="#1f4e99"/><rect x="7" y="10" width="2" height="4" fill="#153a75"/><rect x="3" y="13" width="10" height="1" fill="#9fb6dc"/></svg>